<svg data-v-fde0c5aa="" xmlns="http://www.w3.org/2000/svg" viewBox="0 0 300 300" class="icon"><!----><defs data-v-fde0c5aa=""><!----></defs><rect data-v-fde0c5aa="" fill="#FFFFFF" x="0" y="0" width="300px" height="300px" class="logo-background-square"/><!----><defs data-v-fde0c5aa=""><!----></defs><g data-v-fde0c5aa="" id="1085b18d-d4df-4fba-9196-c4d8a1d04936" fill="#FD9245" stroke="none" transform="matrix(2.226743459701538,0,0,2.226743459701538,53.076543340771565,38.93339021524767)"><path d="M62.545 11.9c0-2.006-1.66-3.801-4.271-5.022 1.493-.445 2.393-1.017 2.393-1.64 0-.959-2.128-1.794-5.275-2.237-.053-1.396-2.381-2.522-5.255-2.522-2.904 0-5.259 1.149-5.263 2.568-2.984.451-4.982 1.262-4.982 2.191 0 .599.835 1.148 2.222 1.585-2.679 1.222-4.385 3.042-4.385 5.077 0 3.245 4.322 5.945 10.042 6.539a7.87 7.87 0 1 1 10.237-7.506 7.873 7.873 0 0 1-5.503 7.506c5.719-.593 10.04-3.293 10.04-6.539z"/><path d="M53.888 13.77c-.792 0-1.165-1.367-2.404-1.367-.982 0-1.281.784-1.347.784-.064 0-.364-.784-1.348-.784-1.238 0-1.612 1.367-2.404 1.367-.618 0-.881-.682-1.051-.638-.161.042.294 2.363 2.462 2.363 1.408 0 2.235-1.12 2.34-1.12.105 0 .932 1.12 2.34 1.12 2.169 0 2.623-2.32 2.463-2.363-.17-.045-.433.638-1.051.638z"/><path d="M52.477 15.494c-1.408 0-2.235-1.12-2.34-1.12-.105 0-.932 1.12-2.34 1.12-2.168 0-2.624-2.32-2.462-2.363.17-.044.433.638 1.051.638.792 0 1.167-1.367 2.404-1.367.984 0 1.283.784 1.348.784.066 0 .365-.784 1.347-.784 1.239 0 1.612 1.367 2.404 1.367.618 0 .881-.682 1.052-.638.159.043-.295 2.363-2.464 2.363z"/><g><path d="M49.669 21.55h1.159l3.475 1.565c1.158-2.316 0-4.171 0-4.171l-3.475 1.448h-1.159l-3.475-1.448s-1.159 1.855 0 4.171l3.475-1.565z"/><path d="M75.074 49.943c.675 0 1.284.253 1.764.655l.594-.248-10.746-26.07-.446-.962s-4.048-2.281-10.154-3.338c-1.944 4.362-5.837 24.868-5.837 24.868s-3.984-20.616-5.93-24.795c-5.615 1.117-10.062 3.275-10.062 3.275l-.45.924-10.83 26.257.577.237a2.734 2.734 0 0 1 1.715-.615 2.75 2.75 0 0 1 2.727 2.447l.859.354 6.393-15.502s2.644 30.519 3.322 30.519c.184 0 .361-.028.54-.055l2.931 27.49c0 2.149 1.743 3.893 3.893 3.893s3.341-1.743 3.341-3.893V65.297h1.946v30.088c0 2.149 1.743 3.893 3.893 3.893s3.341-1.743 3.341-3.893l2.932-27.49c.179.026.356.055.54.055.678 0 3.308-30.607 3.308-30.607l6.33 15.452.776-.323a2.75 2.75 0 0 1 2.733-2.529zm.858-1.596a.608.608 0 1 1-1.217 0 .608.608 0 0 1 1.217 0zm-1.217-2.25a.608.608 0 1 1 0 1.215.608.608 0 0 1 0-1.215zm-49.588 2.94a.608.608 0 1 1 0-1.215.608.608 0 0 1 0 1.215zm.608-1.642a.608.608 0 1 1 0-1.215.608.608 0 0 1 0 1.215zm23.11-.413a.608.608 0 1 1 1.217 0 .608.608 0 0 1-1.217 0zm.354 5.4l1.026-3.324 1.001 3.324h-2.027zm7.314-16.909l2.489-2.98 2.489 2.98h-4.978z"/><path d="M76.811 51.032a2.491 2.491 0 0 0-1.606-.595 2.507 2.507 0 0 0-2.494 2.303c-.006.07-.021.14-.021.211a2.513 2.513 0 0 0 2.515 2.514 2.513 2.513 0 0 0 2.514-2.514 2.507 2.507 0 0 0-.908-1.919zM27.592 53.111c0-.094-.017-.184-.028-.274a2.427 2.427 0 0 0-2.405-2.16c-.575 0-1.097.209-1.513.543-.138.11-.263.235-.375.372L9.716 39.687l-.381.434L22.961 52.09c-.148.31-.235.655-.235 1.021a2.434 2.434 0 0 0 2.433 2.433c.479 0 .922-.144 1.299-.383l1.642 1.443.381-.435-1.569-1.38c.42-.435.68-1.025.68-1.678z"/></g></g><!----></svg>