<svg data-v-423bf9ae="" xmlns="http://www.w3.org/2000/svg" viewBox="0 0 506 109" class="iconLeft"><!----><!----><!----><g data-v-423bf9ae="" id="370c77cf-8c17-4721-a213-06884b41e5de" fill="#1E2314" transform="matrix(5.698005676269531,0,0,5.698005676269531,90.05543518066406,4.912873268127441)"><path d="M8.75 6.01C8.13 4.76 7 3.86 5.22 3.86C2.72 3.86 0.88 5.61 0.88 8.89C0.88 12.19 2.73 13.92 5.19 13.92C6.72 13.92 7.90 13.26 8.72 11.89L7.66 11.12C7.01 12.15 6.27 12.60 5.22 12.60C3.47 12.60 2.31 11.35 2.31 8.90C2.31 6.45 3.47 5.19 5.22 5.19C6.41 5.19 7.15 5.78 7.71 6.79ZM12.94 6.15C11.10 6.15 9.80 7.49 9.80 10.02C9.80 12.57 11.09 13.92 12.94 13.92C14.76 13.92 16.06 12.57 16.06 10.02C16.06 7.49 14.74 6.15 12.94 6.15ZM12.94 7.38C14.03 7.38 14.80 8.29 14.80 10.04C14.80 11.77 14.03 12.68 12.94 12.68C11.82 12.68 11.07 11.77 11.07 10.04C11.07 8.29 11.83 7.38 12.94 7.38ZM17.92 6.33L17.92 13.73L19.25 13.73L19.25 8.71C19.66 7.73 20.31 7.41 21.10 7.41C22.08 7.41 22.72 7.90 22.72 9.18L22.72 13.73L24.05 13.73L24.05 9.04C24.05 6.97 23.02 6.15 21.52 6.15C20.51 6.15 19.73 6.52 19.18 7.24L19.18 6.33ZM30.84 3.84L30.84 7.18C30.35 6.58 29.64 6.15 28.67 6.15C26.63 6.15 25.87 8.12 25.87 10.04C25.87 11.96 26.63 13.92 28.67 13.92C29.69 13.92 30.44 13.43 30.93 12.78L30.93 13.73L32.17 13.73L32.17 3.39ZM29.01 12.68C27.59 12.68 27.13 11.42 27.13 10.04C27.13 8.65 27.59 7.36 28.99 7.36C29.88 7.36 30.45 7.88 30.84 8.57L30.84 11.49C30.45 12.21 29.88 12.68 29.01 12.68ZM34.24 6.33L34.24 11.21C34.24 13.08 35.28 13.92 36.78 13.92C37.77 13.92 38.56 13.54 39.12 12.81L39.12 13.73L40.38 13.73L40.38 6.33L39.05 6.33L39.05 11.34C38.63 12.33 37.98 12.66 37.20 12.66C36.26 12.66 35.57 12.17 35.57 10.99L35.57 6.33ZM48.20 7.69C47.82 6.80 46.93 6.15 45.58 6.15C43.68 6.15 42.24 7.49 42.24 10.02C42.24 12.57 43.68 13.92 45.44 13.92C46.98 13.92 47.84 12.91 48.16 12.35L47.21 11.65C46.84 12.26 46.27 12.68 45.51 12.68C44.45 12.68 43.54 11.82 43.54 10.04C43.54 8.26 44.45 7.38 45.58 7.38C46.33 7.38 46.91 7.76 47.24 8.47ZM48.86 6.33L48.86 7.42L49.70 7.42L49.70 11.91C49.70 13.19 50.46 13.80 51.37 13.80C51.90 13.80 52.47 13.59 52.74 13.29L52.96 12.07C52.63 12.39 52.29 12.52 51.90 12.52C51.34 12.52 51.03 12.21 51.03 11.62L51.03 7.42L52.92 7.42L52.92 6.33L51.03 6.33L51.03 3.89L49.70 4.33L49.70 6.33ZM57.15 6.15C55.31 6.15 54.01 7.49 54.01 10.02C54.01 12.57 55.30 13.92 57.15 13.92C58.97 13.92 60.27 12.57 60.27 10.02C60.27 7.49 58.95 6.15 57.15 6.15ZM57.15 7.38C58.24 7.38 59.01 8.29 59.01 10.04C59.01 11.77 58.24 12.68 57.15 12.68C56.03 12.68 55.29 11.77 55.29 10.04C55.29 8.29 56.04 7.38 57.15 7.38ZM66.82 6.59C66.57 6.36 66.18 6.15 65.52 6.15C64.62 6.15 63.91 6.52 63.39 7.22L63.39 6.33L62.13 6.33L62.13 13.73L63.46 13.73L63.46 8.74C63.88 7.70 64.51 7.41 65.27 7.41C65.72 7.41 66.07 7.50 66.33 7.77ZM72.83 6.59C72.58 6.36 72.18 6.15 71.53 6.15C70.63 6.15 69.92 6.52 69.40 7.22L69.40 6.33L68.14 6.33L68.14 13.73L69.47 13.73L69.47 8.74C69.89 7.70 70.52 7.41 71.27 7.41C71.72 7.41 72.07 7.50 72.34 7.77Z"></path></g><!----><g data-v-423bf9ae="" id="1bccbe5a-c9c6-4a28-b1d2-233b5e1a782b" transform="matrix(1.0977665185928345,0,0,1.0977665185928345,-9.447480201721191,-0.2759408950805664)" stroke="none" fill="#FD9245"><path d="M62.545 11.9c0-2.006-1.66-3.801-4.271-5.022 1.493-.445 2.393-1.017 2.393-1.64 0-.959-2.128-1.794-5.275-2.237-.053-1.396-2.381-2.522-5.255-2.522-2.904 0-5.259 1.149-5.263 2.568-2.984.451-4.982 1.262-4.982 2.191 0 .599.835 1.148 2.222 1.585-2.679 1.222-4.385 3.042-4.385 5.077 0 3.245 4.322 5.945 10.042 6.539a7.87 7.87 0 1 1 10.237-7.506 7.873 7.873 0 0 1-5.503 7.506c5.719-.593 10.04-3.293 10.04-6.539z"></path><path d="M53.888 13.77c-.792 0-1.165-1.367-2.404-1.367-.982 0-1.281.784-1.347.784-.064 0-.364-.784-1.348-.784-1.238 0-1.612 1.367-2.404 1.367-.618 0-.881-.682-1.051-.638-.161.042.294 2.363 2.462 2.363 1.408 0 2.235-1.12 2.34-1.12.105 0 .932 1.12 2.34 1.12 2.169 0 2.623-2.32 2.463-2.363-.17-.045-.433.638-1.051.638z"></path><path d="M52.477 15.494c-1.408 0-2.235-1.12-2.34-1.12-.105 0-.932 1.12-2.34 1.12-2.168 0-2.624-2.32-2.462-2.363.17-.044.433.638 1.051.638.792 0 1.167-1.367 2.404-1.367.984 0 1.283.784 1.348.784.066 0 .365-.784 1.347-.784 1.239 0 1.612 1.367 2.404 1.367.618 0 .881-.682 1.052-.638.159.043-.295 2.363-2.464 2.363z"></path><g><path d="M49.669 21.55h1.159l3.475 1.565c1.158-2.316 0-4.171 0-4.171l-3.475 1.448h-1.159l-3.475-1.448s-1.159 1.855 0 4.171l3.475-1.565z"></path><path d="M75.074 49.943c.675 0 1.284.253 1.764.655l.594-.248-10.746-26.07-.446-.962s-4.048-2.281-10.154-3.338c-1.944 4.362-5.837 24.868-5.837 24.868s-3.984-20.616-5.93-24.795c-5.615 1.117-10.062 3.275-10.062 3.275l-.45.924-10.83 26.257.577.237a2.734 2.734 0 0 1 1.715-.615 2.75 2.75 0 0 1 2.727 2.447l.859.354 6.393-15.502s2.644 30.519 3.322 30.519c.184 0 .361-.028.54-.055l2.931 27.49c0 2.149 1.743 3.893 3.893 3.893s3.341-1.743 3.341-3.893V65.297h1.946v30.088c0 2.149 1.743 3.893 3.893 3.893s3.341-1.743 3.341-3.893l2.932-27.49c.179.026.356.055.54.055.678 0 3.308-30.607 3.308-30.607l6.33 15.452.776-.323a2.75 2.75 0 0 1 2.733-2.529zm.858-1.596a.608.608 0 1 1-1.217 0 .608.608 0 0 1 1.217 0zm-1.217-2.25a.608.608 0 1 1 0 1.215.608.608 0 0 1 0-1.215zm-49.588 2.94a.608.608 0 1 1 0-1.215.608.608 0 0 1 0 1.215zm.608-1.642a.608.608 0 1 1 0-1.215.608.608 0 0 1 0 1.215zm23.11-.413a.608.608 0 1 1 1.217 0 .608.608 0 0 1-1.217 0zm.354 5.4l1.026-3.324 1.001 3.324h-2.027zm7.314-16.909l2.489-2.98 2.489 2.98h-4.978z"></path><path d="M76.811 51.032a2.491 2.491 0 0 0-1.606-.595 2.507 2.507 0 0 0-2.494 2.303c-.006.07-.021.14-.021.211a2.513 2.513 0 0 0 2.515 2.514 2.513 2.513 0 0 0 2.514-2.514 2.507 2.507 0 0 0-.908-1.919zM27.592 53.111c0-.094-.017-.184-.028-.274a2.427 2.427 0 0 0-2.405-2.16c-.575 0-1.097.209-1.513.543-.138.11-.263.235-.375.372L9.716 39.687l-.381.434L22.961 52.09c-.148.31-.235.655-.235 1.021a2.434 2.434 0 0 0 2.433 2.433c.479 0 .922-.144 1.299-.383l1.642 1.443.381-.435-1.569-1.38c.42-.435.68-1.025.68-1.678z"></path></g></g><!----></svg>